<?xml version="1.0" ?><!DOCTYPE svg  PUBLIC '-//W3C//DTD SVG 1.1//EN'  'http://www.w3.org/Graphics/SVG/1.1/DTD/svg11.dtd'><svg enable-background="new 0 0 512 512" height="512px" id="Layer_1" version="1.1" viewBox="0 0 512 512" width="512px" xml:space="preserve" xmlns="http://www.w3.org/2000/svg" xmlns:xlink="http://www.w3.org/1999/xlink"><g><path d="M384,432c0,5.563,0.938,10.859,2.281,16H384h-64H160c0,17.672-14.328,32-32,32s-32-14.328-32-32H48   c-8.836,0-16-7.156-16-16v-16c0-8.844,7.164-16,16-16h283.078l32.016-138.766C365.969,248.797,377.031,240,389.781,240h5.344   l44.172-123.891C434.813,110.609,432,103.656,432,96c0-17.672,14.328-32,32-32s32,14.328,32,32   c0,15.875-11.594,28.969-26.781,31.469L429.094,240H432c8.844,0,16,7.156,16,16v112C412.719,368,384,396.703,384,432z M448,384   c-26.516,0-48,21.484-48,48s21.484,48,48,48s48-21.484,48-48S474.516,384,448,384z M448,448.797   c-9.281,0-16.797-7.516-16.797-16.797s7.516-16.797,16.797-16.797s16.797,7.516,16.797,16.797S457.281,448.797,448,448.797z    M64,344V184c0-22.094,17.906-40,40-40h72v48l16-16l16,16v-48h72c22.094,0,40,17.906,40,40v160c0,22.094-17.906,40-40,40H104   C81.906,384,64,366.094,64,344z M200.797,256H224v32h16v-32h23.203l-31.211-38.406L200.797,256z M128,320v16h128v-16H128z    M120.797,256H144v32h16v-32h23.203l-31.211-38.406L120.797,256z" fill="#4D4D4D"/></g></svg>