<svg xmlns="http://www.w3.org/2000/svg" viewBox="0 0 67.69 40.13"><defs><style>.cls-1{fill:#414042;}</style></defs><title>employees</title><g id="Layer_2" data-name="Layer 2">
<g id="main_menu"><g id="Сотрудники">

<path class="cls-1" d="M33.85,24.74c-14.15,0-18.46,10.15-18.46,10.15v5.23H52.31V34.89S48,24.74,33.85,24.74Z"/>
<circle class="cls-1" cx="53.85" cy="7.82" r="7.69"/>

<path class="cls-1" d="M54.18,21.36a13.73,13.73,0,0,0-8.41,2.46c6.9,3.38,9.61,9.23,9.61,9.85V34H67.69V30C67.69,29.66,64.39,21.36,54.18,21.36Z"/>
<circle class="cls-1" cx="13.85" cy="7.82" r="7.69"/>

<path class="cls-1" d="M13.51,21.36a13.73,13.73,0,0,1,8.41,2.46C15,27.2,12.31,33,12.31,33.66V34H0V30C0,29.66,3.3,21.36,13.51,21.36Z"/>
<circle class="cls-1" cx="33.85" cy="9.34" r="9.34"/></g></g></g></svg>