<svg xmlns="http://www.w3.org/2000/svg" viewBox="0 0 40 40"><defs><style>.cls-1{fill:#414042;}</style></defs><title>import</title><g id="Layer_2" data-name="Layer 2">

<g id="main_menu"><g id="Импорт_Button" data-name="Импорт Button">


<path class="cls-1" d="M32.18,0H28.8V5.38h3.38a2.44,2.44,0,0,1,2.44,2.44V32.18a2.44,2.44,0,0,1-2.44,2.44H7.82a2.44,2.44,0,0,1-2.43-2.44V7.82A2.44,2.44,0,0,1,7.82,5.38h3.39V0H7.82A7.83,7.83,0,0,0,0,7.82V32.18A7.83,7.83,0,0,0,7.82,40H32.18A7.82,7.82,0,0,0,40,32.18V7.82A7.82,7.82,0,0,0,32.18,0Z"/>

<polygon class="cls-1" points="27.18 17.94 20 30.38 12.82 17.94 17 17.94 17 0 23 0 23 17.94 27.18 17.94"/></g></g></g></svg>