<svg xmlns="http://www.w3.org/2000/svg" viewBox="0 0 17 17"><title>maximized</title><g id="Layer_2" data-name="Layer 2"><g id="main_menu"><g id="Window_buttons" data-name="Window buttons"><path d="M13.44,0H8.56A3.57,3.57,0,0,0,5,3.56V4H8V3.56A.56.56,0,0,1,8.56,3h4.88a.56.56,0,0,1,.56.56V8.44a.56.56,0,0,1-.56.56H13v3h.44A3.57,3.57,0,0,0,17,8.44V3.56A3.57,3.57,0,0,0,13.44,0Z"/><path d="M9.47,4H3.53A3.53,3.53,0,0,0,0,7.53v5.94A3.53,3.53,0,0,0,3.53,17H9.47A3.53,3.53,0,0,0,13,13.47V7.53A3.53,3.53,0,0,0,9.47,4ZM10,13.47a.53.53,0,0,1-.53.53H3.53A.53.53,0,0,1,3,13.47V7.53A.53.53,0,0,1,3.53,7H9.47a.53.53,0,0,1,.53.53Z"/></g></g></g></svg>