<svg xmlns="http://www.w3.org/2000/svg" viewBox="0 0 44 40"><defs><style>.cls-1{fill:#414042;}</style></defs><title>productivity</title><g id="Layer_2" data-name="Layer 2">

<g id="main_menu"><g id="Выработка_Button" data-name="Выработка Button"><g id="icons">

<g id="statistics"


><path class="cls-1" d="M8,20H4a4,4,0,0,0-4,4V36a4,4,0,0,0,4,4H8a4,4,0,0,0,4-4V24A4,4,0,0,0,8,20Z"/>

<path class="cls-1" d="M24,0H20a4,4,0,0,0-4,4V36a4,4,0,0,0,4,4h4a4,4,0,0,0,4-4V4A4,4,0,0,0,24,0Z"/>

<path class="cls-1" d="M40,12H36a4,4,0,0,0-4,4V36a4,4,0,0,0,4,4h4a4,4,0,0,0,4-4V16A4,4,0,0,0,40,12Z"/></g></g></g></g></g></svg>