<svg xmlns="http://www.w3.org/2000/svg" viewBox="0 0 37.36 40"><defs><style>.cls-1{fill:#3b3b3c;}</style></defs><title>settings</title><g id="Layer_2" data-name="Layer 2">

<g id="main_menu"><g id="Настройки_Button" data-name="Настройки Button"><g id="icons">


<path id="settings" class="cls-1" d="M35.68,24l-2-1.17a3.43,3.43,0,0,1,0-5.83l2-1.17a3.17,3.17,0,0,0,1.17-4.5L35.18,8.5a3.17,3.17,0,0,0-4.5-1.17l-2,1.17a3.33,3.33,0,0,1-5-2.83V3.33A3.34,3.34,0,0,0,20.35,0H17a3.34,3.34,0,0,0-3.33,3.33V5.5a3.33,3.33,0,0,1-5,2.83l-2-1A3.23,3.23,0,0,0,2.18,8.5L.51,11.33A3.63,3.63,0,0,0,1.68,16l2,1.17a3.28,3.28,0,0,1,0,5.67L1.68,24A3.17,3.17,0,0,0,.51,28.5l1.67,2.83a3.17,3.17,0,0,0,4.5,1.17l2-1a3.33,3.33,0,0,1,5,2.83v2.33A3.34,3.34,0,0,0,17,40h3.33a3.34,3.34,0,0,0,3.33-3.33V34.5a3.33,3.33,0,0,1,5-2.83l2,1.17a3.23,3.23,0,0,0,4.5-1.17l1.67-2.83A3.8,3.8,0,0,0,35.68,24ZM19,26.67A6.67,6.67,0,1,1,25.69,20,6.69,6.69,0,0,1,19,26.67Z"/></g></g></g></g></svg>